<svg xmlns="http://www.w3.org/2000/svg" viewBox="0 0 640 344" fill="none">
  <style>
    text { font-family: 'Source Sans 3', 'Source Sans Pro', system-ui, sans-serif; }
    .title { font-size: 14px; font-weight: 700; }
    .label { font-size: 12px; font-weight: 600; }
    .pct { font-size: 12px; font-weight: 700; }
    .status { font-size: 12px; font-weight: 600; }
    .note { font-size: 12px; }
  </style>

  <text x="320" y="48" text-anchor="middle" class="title" fill="var(--heading)">Context window (200k tokens)</text>

  <rect x="100" y="72" width="440" height="24" rx="6" fill="var(--bg-secondary)"/>
  <text x="320" y="89" text-anchor="middle" class="label" fill="var(--text-muted)">[system prompt] [documents] [conversation] [tools]</text>

  <text x="56" y="137" text-anchor="end" class="pct" fill="var(--text)">40%</text>
  <rect x="72" y="120" width="400" height="24" rx="6" fill="var(--bg-secondary)"/>
  <rect x="72" y="120" width="160" height="24" rx="6" fill="rgba(40,200,64,0.25)"/>
  <text x="496" y="137" class="status" fill="#28c840">Good</text>

  <text x="56" y="185" text-anchor="end" class="pct" fill="var(--text)">60%</text>
  <rect x="72" y="168" width="400" height="24" rx="6" fill="var(--bg-secondary)"/>
  <rect x="72" y="168" width="240" height="24" rx="6" fill="rgba(239,156,3,0.3)"/>
  <text x="496" y="185" class="status" fill="#ef9c03">OK</text>

  <text x="56" y="233" text-anchor="end" class="pct" fill="var(--text)">80%</text>
  <rect x="72" y="216" width="400" height="24" rx="6" fill="var(--bg-secondary)"/>
  <rect x="72" y="216" width="320" height="24" rx="6" fill="rgba(223,60,48,0.25)"/>
  <text x="496" y="233" class="status" fill="#df3c30">Danger</text>

  <text x="56" y="281" text-anchor="end" class="pct" fill="var(--text)">95%</text>
  <rect x="72" y="264" width="400" height="24" rx="6" fill="var(--bg-secondary)"/>
  <rect x="72" y="264" width="380" height="24" rx="6" fill="rgba(223,60,48,0.4)"/>
  <text x="496" y="281" class="status" fill="#df3c30">Lost</text>

  <text x="320" y="320" text-anchor="middle" class="note" fill="var(--text-muted)">More noise = worse output. Focused context = better output.</text>
</svg>
