<svg xmlns="http://www.w3.org/2000/svg" viewBox="0 0 760 320" fill="none">
  <style>
    text { font-family: 'Source Sans 3', 'Source Sans Pro', system-ui, sans-serif; }
    .col-title { font-size: 13px; font-weight: 700; }
    .cmd { font-size: 12px; font-weight: 600; }
    .tool { font-size: 11.5px; font-family: 'SF Mono', 'Fira Code', monospace; }
  </style>

  <!-- Left column header -->
  <text x="140" y="32" text-anchor="middle" class="col-title" fill="var(--heading)">What you type</text>
  <!-- Right column header -->
  <text x="540" y="32" text-anchor="middle" class="col-title" fill="var(--heading)">What the agent actually does</text>

  <!-- Divider -->
  <line x1="310" y1="16" x2="310" y2="310" stroke="var(--border)" stroke-width="1.5"/>

  <!-- Row 1: /commit -->
  <rect x="24" y="52" width="260" height="36" rx="8" fill="rgba(0,112,203,0.08)" stroke="rgba(0,112,203,0.3)" stroke-width="1"/>
  <text x="154" y="76" text-anchor="middle" class="cmd" fill="var(--accent)">/commit</text>

  <line x1="284" y1="70" x2="324" y2="70" stroke="var(--accent)" stroke-width="1.5"/>
  <polygon points="324,66 334,70 324,74" fill="var(--accent)"/>

  <text x="346" y="58" class="tool" fill="var(--text)">git status</text>
  <text x="346" y="74" class="tool" fill="var(--text)">git diff</text>
  <text x="346" y="90" class="tool" fill="var(--text)">git add &lt;files&gt;</text>
  <text x="346" y="106" class="tool" fill="var(--text)">git commit -m "..."</text>

  <!-- Row 2: find auth code -->
  <rect x="24" y="132" width="260" height="36" rx="8" fill="rgba(0,112,203,0.08)" stroke="rgba(0,112,203,0.3)" stroke-width="1"/>
  <text x="154" y="156" text-anchor="middle" class="cmd" fill="var(--accent)">"find auth code"</text>

  <line x1="284" y1="150" x2="324" y2="150" stroke="var(--accent)" stroke-width="1.5"/>
  <polygon points="324,146 334,150 324,154" fill="var(--accent)"/>

  <text x="346" y="140" class="tool" fill="var(--text)">Grep: "auth"</text>
  <text x="346" y="156" class="tool" fill="var(--text)">Glob: **/auth/**</text>
  <text x="346" y="172" class="tool" fill="var(--text)">LS: src/services/auth/</text>

  <!-- Row 3: explain login flow -->
  <rect x="24" y="204" width="260" height="36" rx="8" fill="rgba(0,112,203,0.08)" stroke="rgba(0,112,203,0.3)" stroke-width="1"/>
  <text x="154" y="228" text-anchor="middle" class="cmd" fill="var(--accent)">"explain the login flow"</text>

  <line x1="284" y1="222" x2="324" y2="222" stroke="var(--accent)" stroke-width="1.5"/>
  <polygon points="324,218 334,222 324,226" fill="var(--accent)"/>

  <text x="346" y="212" class="tool" fill="var(--text)">Read: src/auth/login.ts</text>
  <text x="346" y="228" class="tool" fill="var(--text)">Read: src/auth/middleware.ts</text>
  <text x="346" y="244" class="tool" fill="var(--text)">Trace calls between files</text>
</svg>
