<svg xmlns="http://www.w3.org/2000/svg" viewBox="0 0 760 336" fill="none">
  <style>
    text { font-family: 'Source Sans 3', 'Source Sans Pro', system-ui, sans-serif; }
    .col-title { font-size: 13px; font-weight: 700; }
    .cmd { font-size: 12px; font-weight: 600; }
    .tool { font-size: 11.5px; font-family: 'SF Mono', 'Fira Code', monospace; }
  </style>

  <text x="156" y="32" text-anchor="middle" class="col-title" fill="var(--heading)">What you type</text>
  <text x="480" y="32" text-anchor="middle" class="col-title" fill="var(--heading)">What the agent actually does</text>

  <rect x="24" y="64" width="264" height="48" rx="8" fill="rgba(0,112,203,0.08)" stroke="rgba(0,112,203,0.3)" stroke-width="1"/>
  <text x="156" y="93" text-anchor="middle" class="cmd" fill="var(--accent)">/commit</text>

  <line x1="296" y1="88" x2="328" y2="88" stroke="var(--accent)" stroke-width="1.5"/>
  <polygon points="328,84 336,88 328,92" fill="var(--accent)"/>

  <text x="360" y="68" class="tool" fill="var(--text)">git status</text>
  <text x="360" y="84" class="tool" fill="var(--text)">git diff</text>
  <text x="360" y="100" class="tool" fill="var(--text)">git add &lt;files&gt;</text>
  <text x="360" y="116" class="tool" fill="var(--text)">git commit -m "..."</text>

  <rect x="24" y="160" width="264" height="48" rx="8" fill="rgba(0,112,203,0.08)" stroke="rgba(0,112,203,0.3)" stroke-width="1"/>
  <text x="156" y="189" text-anchor="middle" class="cmd" fill="var(--accent)">"find auth code"</text>

  <line x1="296" y1="184" x2="328" y2="184" stroke="var(--accent)" stroke-width="1.5"/>
  <polygon points="328,180 336,184 328,188" fill="var(--accent)"/>

  <text x="360" y="172" class="tool" fill="var(--text)">Grep: "auth"</text>
  <text x="360" y="188" class="tool" fill="var(--text)">Glob: **/auth/**</text>
  <text x="360" y="204" class="tool" fill="var(--text)">LS: src/services/auth/</text>

  <rect x="24" y="256" width="264" height="48" rx="8" fill="rgba(0,112,203,0.08)" stroke="rgba(0,112,203,0.3)" stroke-width="1"/>
  <text x="156" y="285" text-anchor="middle" class="cmd" fill="var(--accent)">"explain the login flow"</text>

  <line x1="296" y1="280" x2="328" y2="280" stroke="var(--accent)" stroke-width="1.5"/>
  <polygon points="328,276 336,280 328,284" fill="var(--accent)"/>

  <text x="360" y="268" class="tool" fill="var(--text)">Read: src/auth/login.ts</text>
  <text x="360" y="284" class="tool" fill="var(--text)">Read: src/auth/middleware.ts</text>
  <text x="360" y="300" class="tool" fill="var(--text)">Trace calls between files</text>
</svg>
