<svg xmlns="http://www.w3.org/2000/svg" viewBox="0 0 888 448" fill="none">
  <style>
    text { font-family: 'Source Sans 3', 'Source Sans Pro', system-ui, sans-serif; }
    .type-title { font-size: 13px; font-weight: 700; }
    .type-file { font-size: 10.5px; font-weight: 600; font-family: 'SF Mono', 'Fira Code', monospace; }
    .step { font-size: 11px; }
    .human { font-size: 10.5px; font-weight: 600; }
    .desc { font-size: 11px; font-weight: 600; }
  </style>

  <!-- Simple Prompt -->
  <rect x="16" y="16" width="264" height="416" rx="12" fill="rgba(40,200,64,0.06)"/>
  <text x="148" y="40" text-anchor="middle" class="type-title" fill="var(--heading)">Simple Prompt</text>
  <text x="148" y="58" text-anchor="middle" class="type-file" fill="var(--accent)">commit.md</text>

  <rect x="48" y="76" width="200" height="36" rx="6" fill="rgba(0,112,203,0.08)" stroke="rgba(0,112,203,0.2)" stroke-width="1"/>
  <text x="148" y="99" text-anchor="middle" class="step" fill="var(--text)">User: /commit</text>

  <line x1="148" y1="112" x2="148" y2="122" stroke="var(--border)" stroke-width="1.5"/>
  <polygon points="142,122 148,128 154,122" fill="var(--border)"/>

  <rect x="48" y="128" width="200" height="36" rx="6" fill="var(--card-bg)" stroke="var(--border)" stroke-width="1"/>
  <text x="148" y="151" text-anchor="middle" class="step" fill="var(--text)">git status + diff</text>

  <line x1="148" y1="164" x2="148" y2="180" stroke="var(--border)" stroke-width="1.5"/>

  <rect x="48" y="180" width="200" height="36" rx="6" fill="var(--card-bg)" stroke="var(--border)" stroke-width="1"/>
  <text x="148" y="203" text-anchor="middle" class="step" fill="var(--text)">analyze changes</text>

  <line x1="148" y1="216" x2="148" y2="232" stroke="var(--border)" stroke-width="1.5"/>

  <rect x="48" y="232" width="200" height="36" rx="6" fill="var(--card-bg)" stroke="var(--border)" stroke-width="1"/>
  <text x="148" y="255" text-anchor="middle" class="step" fill="var(--text)">present plan</text>

  <line x1="148" y1="268" x2="148" y2="284" stroke="var(--border)" stroke-width="1.5"/>

  <rect x="40" y="284" width="216" height="36" rx="6" fill="rgba(239,156,3,0.1)" stroke="rgba(239,156,3,0.3)" stroke-width="1"/>
  <text x="148" y="307" text-anchor="middle" class="human" fill="#ef9c03">Human: "looks good"</text>

  <line x1="148" y1="320" x2="148" y2="336" stroke="var(--border)" stroke-width="1.5"/>

  <rect x="48" y="336" width="200" height="36" rx="6" fill="rgba(40,200,64,0.1)" stroke="rgba(40,200,64,0.3)" stroke-width="1"/>
  <text x="148" y="359" text-anchor="middle" class="step" fill="var(--text)">execute commits</text>

  <text x="148" y="396" text-anchor="middle" class="desc" fill="var(--text-muted)">One task. Linear.</text>
  <text x="148" y="412" text-anchor="middle" class="desc" fill="var(--text-muted)">One human checkpoint.</text>

  <!-- Workflow Prompt -->
  <rect x="312" y="16" width="264" height="416" rx="12" fill="rgba(239,156,3,0.06)"/>
  <text x="444" y="40" text-anchor="middle" class="type-title" fill="var(--heading)">Workflow Prompt</text>
  <text x="444" y="58" text-anchor="middle" class="type-file" fill="var(--accent)">implement_plan.md</text>

  <rect x="344" y="76" width="200" height="36" rx="6" fill="rgba(0,112,203,0.08)" stroke="rgba(0,112,203,0.2)" stroke-width="1"/>
  <text x="444" y="99" text-anchor="middle" class="step" fill="var(--text)">User: /implement plan.md</text>

  <line x1="444" y1="112" x2="444" y2="122" stroke="var(--border)" stroke-width="1.5"/>
  <polygon points="438,122 444,128 450,122" fill="var(--border)"/>

  <rect x="344" y="128" width="200" height="36" rx="6" fill="var(--card-bg)" stroke="var(--border)" stroke-width="1"/>
  <text x="444" y="151" text-anchor="middle" class="step" fill="var(--text)">read plan</text>

  <line x1="444" y1="164" x2="444" y2="180" stroke="var(--border)" stroke-width="1.5"/>

  <rect x="344" y="180" width="200" height="36" rx="6" fill="var(--card-bg)" stroke="var(--border)" stroke-width="1"/>
  <text x="444" y="203" text-anchor="middle" class="step" fill="var(--text)">execute Phase 1</text>

  <line x1="444" y1="216" x2="444" y2="232" stroke="var(--border)" stroke-width="1.5"/>

  <rect x="336" y="232" width="216" height="36" rx="6" fill="rgba(239,156,3,0.1)" stroke="rgba(239,156,3,0.3)" stroke-width="1"/>
  <text x="444" y="255" text-anchor="middle" class="human" fill="#ef9c03">Human verifies Phase 1</text>

  <line x1="444" y1="268" x2="444" y2="284" stroke="var(--border)" stroke-width="1.5"/>

  <rect x="344" y="284" width="200" height="36" rx="6" fill="var(--card-bg)" stroke="var(--border)" stroke-width="1"/>
  <text x="444" y="307" text-anchor="middle" class="step" fill="var(--text)">execute Phase 2</text>

  <line x1="444" y1="320" x2="444" y2="336" stroke="var(--border)" stroke-width="1.5"/>

  <rect x="336" y="336" width="216" height="36" rx="6" fill="rgba(239,156,3,0.1)" stroke="rgba(239,156,3,0.3)" stroke-width="1"/>
  <text x="444" y="359" text-anchor="middle" class="human" fill="#ef9c03">Human verifies Phase 2</text>

  <text x="444" y="396" text-anchor="middle" class="desc" fill="var(--text-muted)">Sequential. Multiple gates.</text>
  <text x="444" y="412" text-anchor="middle" class="desc" fill="var(--text-muted)">Persistent state (plan file).</text>

  <!-- Orchestrator Prompt -->
  <rect x="608" y="16" width="264" height="416" rx="12" fill="rgba(0,112,203,0.06)"/>
  <text x="740" y="40" text-anchor="middle" class="type-title" fill="var(--heading)">Orchestrator Prompt</text>
  <text x="740" y="58" text-anchor="middle" class="type-file" fill="var(--accent)">research_codebase.md</text>

  <rect x="640" y="76" width="200" height="36" rx="6" fill="rgba(0,112,203,0.08)" stroke="rgba(0,112,203,0.2)" stroke-width="1"/>
  <text x="740" y="99" text-anchor="middle" class="step" fill="var(--text)">User: /research "auth?"</text>

  <line x1="740" y1="112" x2="740" y2="122" stroke="var(--border)" stroke-width="1.5"/>
  <polygon points="734,122 740,128 746,122" fill="var(--border)"/>

  <rect x="640" y="128" width="200" height="36" rx="6" fill="var(--card-bg)" stroke="var(--border)" stroke-width="1"/>
  <text x="740" y="151" text-anchor="middle" class="step" fill="var(--text)">READ mentioned files</text>

  <line x1="740" y1="164" x2="740" y2="180" stroke="var(--border)" stroke-width="1.5"/>

  <!-- Parallel spawn box -->
  <rect x="624" y="180" width="232" height="80" rx="8" fill="rgba(0,112,203,0.05)" stroke="rgba(0,112,203,0.2)" stroke-width="1" stroke-dasharray="4,3"/>
  <text x="740" y="196" text-anchor="middle" class="human" fill="var(--accent)">Spawn in parallel:</text>
  <text x="640" y="212" class="step" fill="var(--text)">locator   - finds files</text>
  <text x="640" y="228" class="step" fill="var(--text)">analyzer  - explains code</text>
  <text x="640" y="244" class="step" fill="var(--text)">researcher - finds docs</text>

  <line x1="740" y1="260" x2="740" y2="276" stroke="var(--border)" stroke-width="1.5"/>

  <rect x="640" y="276" width="200" height="36" rx="6" fill="var(--card-bg)" stroke="var(--border)" stroke-width="1"/>
  <text x="740" y="299" text-anchor="middle" class="step" fill="var(--text)">WAIT for all agents</text>

  <line x1="740" y1="312" x2="740" y2="328" stroke="var(--border)" stroke-width="1.5"/>

  <rect x="640" y="328" width="200" height="36" rx="6" fill="rgba(40,200,64,0.1)" stroke="rgba(40,200,64,0.3)" stroke-width="1"/>
  <text x="740" y="351" text-anchor="middle" class="step" fill="var(--text)">Synthesize results</text>

  <text x="740" y="396" text-anchor="middle" class="desc" fill="var(--text-muted)">Delegates. Parallel. Synthesis.</text>
</svg>
