<svg xmlns="http://www.w3.org/2000/svg" viewBox="0 0 888 384" fill="none">
  <style>
    text { font-family: 'Source Sans 3', 'Source Sans Pro', system-ui, sans-serif; }
    .phase-title { font-size: 13px; font-weight: 700; }
    .phase-sub { font-size: 10px; font-weight: 600; opacity: 0.6; }
    .item { font-size: 11px; }
    .review-title { font-size: 11px; font-weight: 700; }
    .review-item { font-size: 10.5px; }
    .leverage { font-size: 11px; font-weight: 600; }
  </style>

  <!-- Phase 1: Research -->
  <rect x="16" y="16" width="264" height="200" rx="12" fill="rgba(0,112,203,0.07)"/>
  <text x="148" y="42" text-anchor="middle" class="phase-title" fill="var(--heading)">Phase 1: Research</text>
  <text x="148" y="58" text-anchor="middle" class="phase-sub" fill="var(--text-muted)">(fresh context)</text>

  <text x="40" y="82" class="item" fill="var(--text)">Input:</text>
  <text x="52" y="98" class="item" fill="var(--text-muted)">- ticket / issue</text>
  <text x="52" y="114" class="item" fill="var(--text-muted)">- codebase</text>
  <text x="40" y="138" class="item" fill="var(--text)">Agent searches, reads,</text>
  <text x="40" y="154" class="item" fill="var(--text)">maps the codebase</text>
  <text x="40" y="178" class="item" fill="var(--text)">Output:</text>
  <text x="52" y="194" class="item" fill="var(--accent)">research.md</text>

  <!-- Arrow 1-2 -->
  <line x1="280" y1="116" x2="300" y2="116" stroke="var(--accent)" stroke-width="2"/>
  <polygon points="300,110 312,116 300,122" fill="var(--accent)"/>

  <!-- Phase 2: Plan -->
  <rect x="312" y="16" width="264" height="200" rx="12" fill="rgba(239,156,3,0.07)"/>
  <text x="444" y="42" text-anchor="middle" class="phase-title" fill="var(--heading)">Phase 2: Plan</text>
  <text x="444" y="58" text-anchor="middle" class="phase-sub" fill="var(--text-muted)">(fresh context)</text>

  <text x="336" y="82" class="item" fill="var(--text)">Input:</text>
  <text x="348" y="98" class="item" fill="var(--text-muted)">- research.md</text>
  <text x="348" y="114" class="item" fill="var(--text-muted)">- ticket / issue</text>
  <text x="336" y="138" class="item" fill="var(--text)">Agent creates step-by-step</text>
  <text x="336" y="154" class="item" fill="var(--text)">implementation plan</text>
  <text x="336" y="178" class="item" fill="var(--text)">Output:</text>
  <text x="348" y="194" class="item" fill="var(--accent)">plan.md</text>

  <!-- Arrow 2-3 -->
  <line x1="576" y1="116" x2="596" y2="116" stroke="var(--accent)" stroke-width="2"/>
  <polygon points="596,110 608,116 596,122" fill="var(--accent)"/>

  <!-- Phase 3: Implement -->
  <rect x="608" y="16" width="264" height="200" rx="12" fill="rgba(40,200,64,0.07)"/>
  <text x="740" y="42" text-anchor="middle" class="phase-title" fill="var(--heading)">Phase 3: Implement</text>
  <text x="740" y="58" text-anchor="middle" class="phase-sub" fill="var(--text-muted)">(fresh context)</text>

  <text x="632" y="82" class="item" fill="var(--text)">Input:</text>
  <text x="644" y="98" class="item" fill="var(--text-muted)">- plan.md</text>
  <text x="644" y="114" class="item" fill="var(--text-muted)">- codebase</text>
  <text x="632" y="138" class="item" fill="var(--text)">Agent follows plan</text>
  <text x="632" y="154" class="item" fill="var(--text)">phase by phase</text>
  <text x="632" y="178" class="item" fill="var(--text)">Output:</text>
  <text x="644" y="194" class="item" fill="var(--accent)">working code</text>

  <!-- Human Review boxes -->
  <rect x="58" y="240" width="180" height="80" rx="8" fill="var(--card-bg)" stroke="var(--border)" stroke-width="1.5"/>
  <text x="148" y="264" text-anchor="middle" class="review-title" fill="var(--heading)">Human Review</text>
  <text x="148" y="280" text-anchor="middle" class="review-item" fill="var(--text-muted)">Is the research correct?</text>
  <text x="148" y="296" text-anchor="middle" class="leverage" fill="#df3c30">Highest leverage!</text>

  <line x1="148" y1="216" x2="148" y2="240" stroke="var(--border)" stroke-width="1.5"/>
  <polygon points="142,240 148,250 154,240" fill="var(--border)"/>

  <rect x="354" y="240" width="180" height="80" rx="8" fill="var(--card-bg)" stroke="var(--border)" stroke-width="1.5"/>
  <text x="444" y="264" text-anchor="middle" class="review-title" fill="var(--heading)">Human Review</text>
  <text x="444" y="280" text-anchor="middle" class="review-item" fill="var(--text-muted)">Is the plan sound?</text>
  <text x="444" y="296" text-anchor="middle" class="leverage" fill="#ef9c03">High leverage!</text>

  <line x1="444" y1="216" x2="444" y2="240" stroke="var(--border)" stroke-width="1.5"/>
  <polygon points="438,240 444,250 450,240" fill="var(--border)"/>

  <rect x="650" y="240" width="180" height="80" rx="8" fill="var(--card-bg)" stroke="var(--border)" stroke-width="1.5"/>
  <text x="740" y="264" text-anchor="middle" class="review-title" fill="var(--heading)">Human Review</text>
  <text x="740" y="280" text-anchor="middle" class="review-item" fill="var(--text-muted)">Does the code work?</text>
  <text x="740" y="296" text-anchor="middle" class="leverage" fill="#28c840">Standard review</text>

  <line x1="740" y1="216" x2="740" y2="240" stroke="var(--border)" stroke-width="1.5"/>
  <polygon points="734,240 740,250 746,240" fill="var(--border)"/>

  <text x="444" y="368" text-anchor="middle" class="item" fill="var(--text-muted)">Each phase starts with a fresh context window. Output of one phase becomes compact input for the next.</text>
</svg>
